<svg height="27" viewBox="0 0 56 27" width="56" xmlns="http://www.w3.org/2000/svg"><path d="m9.03412763 11.3644611c.14661723.770709.7482687 1.3498246 1.46587237 1.3498246.827 0 1.5-.7691428 1.5-1.7142857h2c0 2.2051429-1.57 4-3.5 4s-3.5-1.7948571-3.5-4h1.19887307c-1.01718554-.6130446-1.69887307-1.72858412-1.69887307-3 0-1.9295 1.57-3.5 3.5-3.5s3.5 1.5705 3.5 3.5-1.57 3.5-3.5 3.5c-.33490495 0-.65896985-.0472897-.96587237-.1355389zm14.55962237 21.1494115v-29.56457543c0-.36113208-.283-.65481132-.631-.65481132h-17.0825c-.348 0-.631.29367924-.631.65481132v29.56457543c0 .3611321.283.6553302.631.6553302h.5455v-10.5579245c0-1.9187736 1.505-3.4800472 3.3545-3.4800472h.9425c1.849 0 3.3535 1.5612736 3.3535 3.4800472v10.5579245h8.8865c.348 0 .631-.2941981.631-.6553302zm-5.5015 15.8804717v-13.1496698h-3.1645c1.0995 2.3068868 1.6645 5.1808963 1.6645 8.5966038 0 .9002359-.047 1.8020283-.1405 2.679434l-1.9875-.2267453c.085-.8021698.128-1.6276887.128-2.4526887 0-3.9236792-.781-7.0140566-2.3215-9.1855189l-.1945-.2739622v-11.7705189c0-.7741509-.6075-1.4045755-1.3535-1.4045755h-.9425c-.747 0-1.3545.6304246-1.3545 1.4045755v14.3347642h-2v-1.701368h-.5455c-1.451 0-2.631-1.2250471-2.631-2.7308019v-2.9124056l-1.0835 1.1114151c-.1635.349717-.126.6449528.071 1.6292453.07.3491981.149.7450943.2235 1.2105188l3.2045 14.8416981zm4.8705-48.17533015c1.451 0 2.631 1.2245283 2.631 2.73028302v29.56457543c0 1.5057548-1.18 2.7308019-2.631 2.7308019h-2.8705v13.1496698h3.414v6.6057076h-2v-4.5302359h-19.5065v4.5302359h-2v-6.6057076h3.615l-3.123-14.4748585c-.0705-.4446698-.1465-.8229245-.213-1.1544811-.232-1.1575943-.4155-2.0723585.2115-3.1998585l.0675-.1208962 2.6915-2.7614151v-23.73353773c0-1.50575472 1.18-2.73028302 2.631-2.73028302zm-7.96275 31.78098585v-6h1v6zm4.5-.5v-11h1v11zm-4.5-6.5v-6h1v6zm0-8v-6h1v6zm0-7v-6h1v6zm-5-.5c.827 0 1.5-.673 1.5-1.5s-.673-1.5-1.5-1.5-1.5.673-1.5 1.5.673 1.5 1.5 1.5z" fill="#39aea9" fill-rule="evenodd" transform="matrix(0 1 -1 0 55.5 .5)"/></svg>