<svg height="12" viewBox="0 0 12 12" width="12" xmlns="http://www.w3.org/2000/svg"><path d="m2.36 1.33333333c.04.59333334.14 1.17333334.3 1.72666667l-.8.8c-.27333333-.8-.44666667-1.64666667-.50666667-2.52666667zm6.57333333 8.01333334c.56666667.16 1.14666667.26 1.73333337.3v.99333333c-.88000003-.06-1.7266667-.2333333-2.53333337-.5zm-5.93333333-9.34666667h-2.33333333c-.36666667 0-.66666667.3-.66666667.66666667 0 6.26 5.07333333 11.33333333 11.3333333 11.33333333.3666667 0 .6666667-.3.6666667-.6666667v-2.32666663c0-.36666667-.3-.66666667-.6666667-.66666667-.8266666 0-1.6333333-.13333333-2.37999997-.38-.06666666-.02666667-.14-.03333333-.20666666-.03333333-.17333334 0-.34.06666666-.47333334.19333333l-1.46666666 1.46666667c-1.88666667-.96666667-3.43333334-2.50666667-4.39333334-4.39333334l1.46666667-1.46666666c.18666667-.18666667.24-.44666667.16666667-.68-.24666667-.74666667-.38-1.54666667-.38-2.38 0-.36666667-.3-.66666667-.66666667-.66666667z" fill="#888" transform=""/></svg>