<svg height="35" viewBox="0 0 24 35" width="24" xmlns="http://www.w3.org/2000/svg"><path d="m13 33v2h-2v-2-2h2zm-8.78546667-5.0654333h15.57099997c.0323334 0 .0633334.0036666.0953334.0043333v-3.1176667h-2.0376667c-1.5553333 1.4416667-3.625 2.2986667-5.8433333 2.2986667-3.45133337 0-6.5046667-2.0313333-7.8636667-5.134-.02366667.0106667-.04666667.0223333-.07066667.0323333v5.923c.05-.0013333.09866667-.0066666.149-.0066666zm-2.761-8.4373334c0 .77.62633334 1.396 1.396 1.396h.17166667c.77 0 1.39633333-.626 1.39633333-1.396v-3.7816666c0-.7696667-.62633333-1.396-1.39633333-1.396h-.17166667c-.76966666 0-1.396.6263333-1.396 1.396zm10.40933337-17.83266663c-5.69633337 0-10.3306667 4.634-10.3306667 10.32966663v1.3326667c.391-.2166667.84-.3406667 1.31733333-.3406667h.17166667c.13066667 0 .25866667.0126667.38466667.0303334v-.832c-.00066667-2.25333337.86666666-4.38333337 2.442-5.99733337.00566666-.006.01233333-.011.018-.017v-.008l.21533333-.20466666c.07166667-.06833334.146-.13366667.21966667-.19933334.02266666-.02.04466666-.041.06733333-.061.152-.132.30866667-.25666666.46833333-.377.03066667-.02333333.061-.04633333.092-.069.16633334-.122.336-.23833333.50966667-.34733333.01433333-.009.02933333-.01766667.04366667-.02666667 1.34733333-.836 2.90300003-1.28566666 4.51800003-1.28566666 4.7386666 0 8.5936666 3.85466666 8.5936666 8.59300003v.8033333c.0103334 0 .0206667-.0016667.0313334-.0016667h.0033333.1713333c.509 0 .9843334.1426667 1.393.3863334v-1.3783334c0-5.69566663-4.634-10.32966663-10.3296666-10.32966663zm8.9366666 19.22866663c.7696667 0 1.396-.626 1.396-1.396v-3.436h-.003v-.378c-.0176666-.7543333-.6343333-1.3636666-1.393-1.3636666h-.1723333-.0016667c-.0106666 0-.0213333.003-.032.0033333v1.723 2.48c0 .791-.1123333 1.568-.3233333 2.3203333.116.0306667.236.047.357.047zm-.9853333 1.204c-.225.493-.4953333.957-.8026667 1.3906667h.8696667c.3676667 0 .6666667-.299.6666667-.6666667v-.5996666c-.25-.0073334-.4963334-.0503334-.7336667-.1243334zm-11.92566667-15.88799997c-.05966666.041-.121.07933334-.17966666.12233334-.167.123-.33033334.25233333-.48766667.39033333.31433333 4.6153333 4.8866667 8.3216667 10.354 8.3216667.5606667 0 1.1253333-.0396667 1.685-.118v-1.2153334-1.5256666c0-4.00300003-3.257-7.2596667-7.2603333-7.2596667-1.2553334 0-2.4656667.326-3.53800003.92733333-.082.04566667-.16466667.09033334-.24466667.13933334-.112.06866666-.22033333.14266666-.32866667.21766666zm-1.83366666 1.82033334c-.851 1.21133333-1.316 2.64866663-1.31566667 4.15500003v1.4096666h-.004c.22866667.185.42533333.4063334.58433333.6546667 1.00266667-.4253333 1.858-1.3016667 2.42566667-2.4836667-.827-1.11-1.41233333-2.3723333-1.69033333-3.73566663zm7.21500003 15.45833333h4.025c.6826666-.7273333 1.225-1.5976667 1.5656666-2.5803333.2653334-.7633334.3996667-1.5646667.3996667-2.3816667v-2.258c-.5603333.0706667-1.1243333.109-1.685.109-3.5743333 0-6.753-1.3566667-8.893-3.521-.72433333 1.2563333-1.75166667 2.1883333-2.941 2.664.00466667.0646667.00966667.1296667.00966667.1956667v3.7816666c0 .604-.19966667 1.161-.533 1.6136667 1.06766666 2.811 3.742 4.6756667 6.78200003 4.6756667 1.2973333 0 2.5333333-.349 3.6086666-.9653334h-2.3386666zm7.9443333 4.6766667c1.6216667.5303333 2.7856667 1.9313333 2.7856667 3.5766666v3.2586667h-1.3333334v-3.2586667c0-1.3636666-1.2923333-2.4733333-2.881-2.4733333h-15.57099997c-1.58866666 0-2.88133333 1.1096667-2.88133333 2.4733333v3.2586667h-1.33333333v-3.2586667c0-1.6273333 1.13866666-3.0153333 2.73233333-3.559v-5.9616666c-1.45033333-.062-2.612-1.258-2.612-2.7233334v-3.7816666c0-.2206667.029-.434.07866667-.6393334v-3.082c0-6.43099997 5.23233333-11.66299997 11.66400003-11.66299997 6.431 0 11.663 5.232 11.663 11.66299997v3.657c.0003333.0216667.003.0426667.003.0643334v3.7816666c0 1.1206667-.6793334 2.085-1.6476667 2.5046667v.8193333c0 .5906667-.2586667 1.1203334-.667 1.487zm-9.2142-8.1645667v-4h2v4z" fill="#39aea9" fill-rule="evenodd"/></svg>