<svg height="30" viewBox="0 0 45 30" width="45" xmlns="http://www.w3.org/2000/svg"><path d="m12 26v-2h6v2zm25.0753608 2.1538462c1.0062371 0 1.8250516-.8146154 1.8250516-1.8156924 0-1.0010769-.8188145-1.8152307-1.8250516-1.8152307s-1.8250515.8141538-1.8250515 1.8152307c0 1.001077.8188144 1.8156924 1.8250515 1.8156924zm0-5.477077c2.0296392 0 3.6807217 1.6421539 3.6807217 3.6613846 0 2.0192308-1.6510825 3.6618462-3.6807217 3.6618462s-3.6807216-1.6426154-3.6807216-3.6618462c0-2.0192307 1.6510824-3.6613846 3.6807216-3.6613846zm-14.0036288 5.477077c1.0057732 0 1.8241237-.8146154 1.8241237-1.8156924 0-1.0010769-.8183505-1.8152307-1.8241237-1.8152307-1.0067011 0-1.8259794.8141538-1.8259794 1.8152307 0 1.001077.8192783 1.8156924 1.8259794 1.8156924zm0-5.477077c2.0291752 0 3.6797938 1.6421539 3.6797938 3.6613846 0 2.0192308-1.6506186 3.6618462-3.6797938 3.6618462-2.0296392 0-3.6816495-1.6426154-3.6816495-3.6618462 0-2.0192307 1.6520103-3.6613846 3.6816495-3.6613846zm-15.45968045 5.477077c1.00670103 0 1.82597938-.8146154 1.82597938-1.8156924 0-1.0010769-.81927835-1.8152307-1.82597938-1.8152307s-1.82597939.8141538-1.82597939 1.8152307c0 1.001077.81927836 1.8156924 1.82597939 1.8156924zm0-5.477077c2.02963917 0 3.68164945 1.6421539 3.68164945 3.6613846 0 2.0192308-1.65201028 3.6618462-3.68164945 3.6618462-2.02963918 0-3.68164949-1.6426154-3.68164949-3.6618462 0-2.0192307 1.65201031-3.6613846 3.68164949-3.6613846zm28.02804125-12.1997538v4.5756923h6.294433l-1.5773196-4.5756923zm-32.89082476 9.7536923h27.70097936v-18.07246155h-27.70097936zm42.07407216-.6156923h-.562732v1.1053846h.5001031v5.2961538h-3.3796391v-1.8461538h1.523969v-1.6038462h-.5001031v-2.9515384h-1.0702577v-1.8461539h1.0702577v-.87h-8.6205154v-8.26799996h5.9367526l-.4217011-1.22261539h-6.9935567v12.82246155 1.5364615 4.2673846h-4.0240206v-.0355384h-.6290722v-1.8461539h2.7969588v-2.076h-28.59402061v2.1115385h1.22149484v1.8461538h-3.07716495v-5.8038461h.89350516v-19.91861539h31.41231956v5.25h8.3189691l3.6357216 10.54753849v1.6592307h.562732zm-38.31875257-11.80624617v-1.84615385h7.42268037v1.84615385z" fill="#39aea9" fill-rule="evenodd"/></svg>