<svg height="16" viewBox="0 0 14 16" width="14" xmlns="http://www.w3.org/2000/svg"><path d="m11.311 9.527c-1.161-.393-1.85-.825-2.143-1.175 1.1-.713 1.832-1.946 1.832-3.352v-1c0-2.206-1.794-4-4-4s-4 1.794-4 4v1c0 1.406.732 2.639 1.832 3.352-.292.35-.981.782-2.142 1.175-1.609.543-2.69 2.043-2.69 3.733v2.74h14v-2.74c0-1.69-1.081-3.19-2.689-3.733zm-6.311-5.527c0-1.103.897-2 2-2s2 .897 2 2v1c0 1.103-.897 2-2 2s-2-.897-2-2zm7 10h-10v-.74c0-.831.534-1.569 1.33-1.838 1.845-.624 3-1.436 3.452-2.422h.436c.452.986 1.607 1.798 3.453 2.422.795.268 1.329 1.007 1.329 1.838z" fill="#87b52e" transform=""/></svg>