<svg height="35" viewBox="0 0 24 35" width="24" xmlns="http://www.w3.org/2000/svg"><g fill="#39aea9" fill-rule="evenodd"><path d="m1.35440181 33.6053415v-5.0256517h3.19130925v-1.3946585h-3.19130925v-3.0065349h3.19130925v-1.3946585h-3.19130925v-3.006535h3.19130925v-1.3946584h-3.19130925v-4.315422h21.29119639v4.315422h-3.1913093v1.3946584h3.1913093v3.006535h-3.1913093v1.3946585h3.1913093v3.0065349h-3.1913093v1.3946585h3.1913093v5.0256517zm2.78939052-25.30049905c0-3.8102069 3.00880361-6.91018399 6.70665917-6.91018399h2.2977426c3.6985328 0 6.7080136 3.09997709 6.7080136 6.91018399v4.36772165h-15.71241537zm17.06681717 4.36772165v-4.36772165c0-4.57936104-3.61693-8.30484245-8.0624154-8.30484245h-2.2977426c-4.44480816 0-8.06106098 3.72548141-8.06106098 8.30484245v4.36772165h-2.78939052v22.3274359h24v-22.3274359z"/><path d="m12.5 21.647337c-.6093903 0-1.1047161-.5015353-1.1047161-1.1177778 0-.6162426.4953258-1.1177779 1.1047161-1.1177779.6090414 0 1.1047161.5015353 1.1047161 1.1177779 0 .6162425-.4956747 1.1177778-1.1047161 1.1177778m0-3.647337c-1.3785405 0-2.5 1.1347192-2.5 2.5295592 0 1.1495429.7625227 2.1208485 1.802358 2.427205v5.0432358h1.395284v-5.0432358c1.0394865-.3063565 1.802358-1.2776621 1.802358-2.427205 0-1.39484-1.1218083-2.5295592-2.5-2.5295592"/></g></svg>