<svg height="41" viewBox="0 0 145 41" width="145" xmlns="http://www.w3.org/2000/svg"><g fill="#f8f9f9" fill-rule="evenodd"><path d="m28.2643525 30.8759749c-.493786 2.5974243-1.9756804 8.3008844-2.3050499 9.1478346h-25.9593026v-.9035239c4.82950048-.7340787 5.10388562-1.1858406 5.10388562-6.0423506v-22.8132888c0-5.0254033-.54877029-5.1951245-4.55511532-6.04207467v-.90352391h15.8609636v.90352391c-3.9516289.84695017-4.5003992 1.18584063-4.5003992 6.04207467v24.1688506c0 3.5575219.933124 3.8964124 3.6772438 3.8964124h3.29289c2.9637887 0 3.7319598-.5646335 5.1588699-1.9199193 1.1527931-1.1295429 2.2503337-3.5012242 3.3478743-5.8163317z"/><path d="m37.9738878 10.4670899c-1.9136 0-3.4794531-1.5315253-3.4794531-3.57402113 0-2.0990547 1.5658531-3.57402115 3.5375526-3.57402115 2.1454313 0 3.6534682 1.47496645 3.6534682 3.57402115 0 2.04249583-1.5080369 3.57402113-3.7115677 3.57402113zm-6.0312977 29.5567196v-.9077143c2.8998749-.6806471 3.1898057-.7940421 3.1898057-5.1623826v-11.4595466c0-3.2903951-.2899308-3.3472312-2.5518445-4.3115044v-.7943193c3.4216369-.3970211 6.5530597-1.0779455 9.278636-2.0422186-.0578161 1.1913404-.1159157 4.4248993-.1159157 6.637349v11.9702399c0 4.1978322.3480304 4.3683405 3.3635375 5.1623826v.9077143z"/><path d="m54.0419785 10.4670899c-1.9136 0-3.479453-1.5315253-3.479453-3.57402113 0-2.0990547 1.565853-3.57402115 3.5375526-3.57402115 2.1454312 0 3.6534682 1.47496645 3.6534682 3.57402115 0 2.04249583-1.508037 3.57402113-3.7115678 3.57402113zm-6.0312976 29.5567196v-.9077143c2.8998749-.6806471 3.1898057-.7940421 3.1898057-5.1623826v-11.4595466c0-3.2903951-.2899308-3.3472312-2.5518446-4.3115044v-.7943193c3.421637-.3970211 6.5530598-1.0779455 9.2786361-2.0422186-.0578161 1.1913404-.1159157 4.4248993-.1159157 6.637349v11.9702399c0 4.1978322.3480304 4.3683405 3.3635375 5.1623826v.9077143z"/><path d="m68.1741548 10.4670899c-1.9136 0-3.4794531-1.5315253-3.4794531-3.57402113 0-2.0990547 1.5658531-3.57402115 3.5375526-3.57402115 2.1457147 0 3.6534682 1.47496645 3.6534682 3.57402115 0 2.04249583-1.5077535 3.57402113-3.7115677 3.57402113zm-6.0312977 29.5567196v-.9077143c2.8998749-.6806471 3.1898057-.7940421 3.1898057-5.1623826v-11.4595466c0-3.2903951-.2899308-3.3472312-2.5518445-4.3115044v-.7943193c3.4216369-.3970211 6.5530597-1.0779455 9.278636-2.0422186-.0578161 1.1913404-.1159156 4.4248993-.1159156 6.637349v11.9702399c0 4.1978322.3480303 4.3683405 3.3635374 5.1623826v.9077143z"/><path d="m83.2742883 10.4670899c-1.9138834 0-3.4794531-1.5315253-3.4794531-3.57402113 0-2.0990547 1.5655697-3.57402115 3.5372692-3.57402115 2.1457147 0 3.6537517 1.47496645 3.6537517 3.57402115 0 2.04249583-1.508037 3.57402113-3.7115678 3.57402113zm-6.0312976 29.5567196v-.9077143c2.8995914-.6806471 3.1898056-.7940421 3.1898056-5.1623826v-11.4595466c0-3.2903951-.2902142-3.3472312-2.5518445-4.3115044v-.7943193c3.421637-.3970211 6.5530597-1.0779455 9.278636-2.0422186-.0578161 1.1913404-.1159156 4.4248993-.1159156 6.637349v11.9702399c0 4.1978322.3477469 4.3683405 3.3635374 5.1623826v.9077143z"/><path d="m97.5997726 10.4670899c-1.9136 0-3.4794531-1.5315253-3.4794531-3.57402113 0-2.0990547 1.5658531-3.57402115 3.5375526-3.57402115 2.1454313 0 3.6534679 1.47496645 3.6534679 3.57402115 0 2.04249583-1.5080366 3.57402113-3.7115674 3.57402113zm-6.0310143 29.5567196v-.9077143c2.8995915-.6806471 3.1895223-.7940421 3.1895223-5.1623826v-11.4595466c0-3.2903951-.2899308-3.3472312-2.5515611-4.3115044v-.7943193c3.4213535-.3970211 6.5530597-1.0779455 9.2786365-2.0422186-.057817 1.1913404-.115916 4.4248993-.115916 6.637349v11.9702399c0 4.1978322.347747 4.3683405 3.363537 5.1623826v.9077143z"/><path d="m110.912862 16.3248659v-.7343222c0-5.083939 1.713361-9.88546756 6.439972-13.10516673 2.008738-1.35573545 3.662907-2.14665015 6.203497-2.48537697 2.481399.05631644 4.017475.96014008 4.726323 1.63786977.827229.7909147.768038 1.69473834.354568 2.54196948-.413471.79091469-1.004514 1.46892045-1.713361 1.92055621-.708847.45218788-1.29989.33900288-1.772551-.11290894-1.594979-1.63814583-3.72181-3.21969917-5.376268-3.21969917-2.363306 0-2.126831 2.20296659-2.126831 10.73269865v2.8243799h5.140082c.236186.5648207-.059191 1.4686443-.531852 1.7510547h-4.60823v16.4943673c0 3.7845199.708847 4.1235228 3.958285 4.7449361v.9038236h-13.943071v-.9038236c2.894869-.6214133 3.249437-.8475072 3.249437-4.7449361v-16.4943673h-3.485623l-.177573-.3953193 1.063704-1.3557354z"/><path d="m134.363665 17.5188323c-2.162398 0-4.090876 2.1803551-4.383347 7.4916236 2.337766 0 4.616981 0 6.954747-.1674884.876555-.0560116 1.402659-.2797849 1.402659-1.0062967 0-3.3546867-1.460925-6.3178385-3.974059-6.3178385zm10.636335 17.2756257c-3.331138 4.7519719-7.948118 6.205542-10.051965 6.205542-7.305197 0-11.630278-5.5344954-11.630278-11.6285606 0-4.0254601 1.69513-7.4358853 4.149427-9.8397404 2.629951-2.6276285 5.552373-3.5221752 8.299141-3.5221752 5.552086 0 9.116858 4.2489602 9.175409 8.2741471 0 .8945467-.058551 1.23007-.292185 1.2860817-1.870212.33525-9.292226.8382618-14.786048 1.0623083.058266 6.8763154 4.149428 10.0632405 8.182038 10.0632405 2.103847 0 4.207979-.503285 6.428642-2.5718901z"/></g></svg>