<svg height="49" viewBox="0 0 173 49" width="173" xmlns="http://www.w3.org/2000/svg"><g fill="none" fill-rule="evenodd" transform=""><path d="m34 37.0339917c-.5939893 3.1136741-2.3766025 9.9507229-2.7728105 10.9660083h-31.2271895v-1.0831034c5.8095446-.8799801 6.13961036-1.4215318 6.13961036-7.2432953v-27.3475335c0-6.02422498-.66013153-6.22767904-5.47947883-7.24296441v-1.08310339h19.07960787v1.08310339c-4.7535277 1.01528537-5.4136593 1.42153184-5.4136593 7.24296441v28.9725194c0 4.2645956 1.1224818 4.6708421 4.423462 4.6708421h3.9611118c3.5652265 0 4.4892816-.676857 6.2057526-2.301512 1.3867279-1.3540447 2.706991-4.1971084 4.027254-6.972354z" fill="#87b52e"/><path d="m45.3305346 12.5687482c-2.3258198 0-4.2289824-1.835923-4.2289824-4.28437412 0-2.51625135 1.9031626-4.28437408 4.2995974-4.28437408 2.6075912 0 4.4404832 1.76812273 4.4404832 4.28437408 0 2.44845112-1.832892 4.28437412-4.5110982 4.28437412zm-7.3305346 35.4312518v-1.0881267c3.5245538-.8159288 3.8769403-.9518615 3.8769403-6.1884295v-13.7371836c0-3.9443761-.3523865-4.0125086-3.1015522-5.1684355v-.9521939c4.1587117-.4759307 7.9646924-1.2921919 11.277401-2.4481188-.0702706 1.4281247-.1408857 5.3043682-.1408857 7.9565523v14.3493795c0 5.0321703.4230015 5.236568 4.0880966 6.1884295v1.0881267z" fill="#3b9e3b"/><path d="m64.3305346 12.5687482c-2.3258198 0-4.2289824-1.835923-4.2289824-4.28437412 0-2.51625135 1.9031626-4.28437408 4.2995974-4.28437408 2.6075912 0 4.4404832 1.76812273 4.4404832 4.28437408 0 2.44845112-1.832892 4.28437412-4.5110982 4.28437412zm-7.3305346 35.4312518v-1.0881267c3.5245538-.8159288 3.8769403-.9518615 3.8769403-6.1884295v-13.7371836c0-3.9443761-.3523865-4.0125086-3.1015522-5.1684355v-.9521939c4.1587117-.4759307 7.9646924-1.2921919 11.277401-2.4481188-.0702706 1.4281247-.1408857 5.3043682-.1408857 7.9565523v14.3493795c0 5.0321703.4230015 5.236568 4.0880966 6.1884295v1.0881267z" fill="#168138"/><path d="m81.3305346 12.5687482c-2.3258198 0-4.2289824-1.835923-4.2289824-4.28437412 0-2.51625135 1.9031626-4.28437408 4.2995974-4.28437408 2.6079356 0 4.4404832 1.76812273 4.4404832 4.28437408 0 2.44845112-1.8325476 4.28437412-4.5110982 4.28437412zm-7.3305346 35.4312518v-1.0881267c3.5245538-.8159288 3.8769403-.9518615 3.8769403-6.1884295v-13.7371836c0-3.9443761-.3523865-4.0125086-3.1015522-5.1684355v-.9521939c4.1587117-.4759307 7.9646924-1.2921919 11.277401-2.4481188-.0702706 1.4281247-.1408857 5.3043682-.1408857 7.9565523v14.3493795c0 5.0321703.4230015 5.236568 4.0880966 6.1884295v1.0881267z" fill="#145a2f"/><path d="m99.3305346 12.5687482c-2.3261642 0-4.2289824-1.835923-4.2289824-4.28437412 0-2.51625135 1.9028182-4.28437408 4.299253-4.28437408 2.6079358 0 4.4408278 1.76812273 4.4408278 4.28437408 0 2.44845112-1.832892 4.28437412-4.5110984 4.28437412zm-7.3305346 35.4312518v-1.0881267c3.5242093-.8159288 3.8769403-.9518615 3.8769403-6.1884295v-13.7371836c0-3.9443761-.352731-4.0125086-3.1015522-5.1684355v-.9521939c4.1587117-.4759307 7.9646929-1.2921919 11.2774009-2.4481188-.070271 1.4281247-.140886 5.3043682-.140886 7.9565523v14.3493795c0 5.0321703.422657 5.236568 4.088097 6.1884295v1.0881267z" fill="#139a8e"/><path d="m116.33019 12.5687482c-2.32582 0-4.228982-1.835923-4.228982-4.28437412 0-2.51625135 1.903162-4.28437408 4.299597-4.28437408 2.607591 0 4.440483 1.76812273 4.440483 4.28437408 0 2.44845112-1.832892 4.28437412-4.511098 4.28437412zm-7.33019 35.4312518v-1.0881267c3.524209-.8159288 3.876596-.9518615 3.876596-6.1884295v-13.7371836c0-3.9443761-.352387-4.0125086-3.101208-5.1684355v-.9521939c4.158367-.4759307 7.964693-1.2921919 11.277401-2.4481188-.070271 1.4281247-.140886 5.3043682-.140886 7.9565523v14.3493795c0 5.0321703.422657 5.236568 4.088097 6.1884295v1.0881267z" fill="#40a4d8"/><path d="m132.392677 19.4831456v-.8763874c0-6.0674999 2.054556-11.79795314 7.722415-15.64054936 2.408753-1.61802195 4.392331-2.56195045 7.438848-2.96620884 2.97554.06721166 4.817507 1.14589296 5.667513 1.9547392.991962.94392851.920984 2.02260981.425176 3.03374998-.495808.9439285-1.20455 1.75310421-2.054556 2.2921154-.850005.53967011-1.558747.40458785-2.125533-.1347528-1.9126-1.95506867-4.462963-3.84259622-6.446887-3.84259622-2.833929 0-2.550363 2.62916212-2.550363 12.80909334v3.3707967h6.163666c.28322.6740935-.070978 1.7527748-.637764 2.0898215h-5.525902v19.6854395c0 4.5166897.850005 4.9212775 4.746529 5.6629121v1.0786813h-16.719665v-1.0786813c3.471347-.7416346 3.896523-1.0114696 3.896523-5.6629121v-19.6854395h-4.179743l-.212934-.4717995 1.275528-1.618022z" fill="#2d4387"/><path d="m160.245567 20.8118604c-2.593013 0-4.905524 2.6174233-5.256237 8.9933744 2.803304 0 5.536396 0 8.3397-.2010627 1.051111-.0672395 1.681982-.3358698 1.681982-1.2080162 0-4.0271583-1.75185-7.5842955-4.765445-7.5842955zm12.754433 20.7386513c-3.994494 5.7045395-9.53089 7.4494883-12.053692 7.4494883-8.759939 0-13.946308-6.6439255-13.946308-13.9595907 0-4.832393 2.032695-8.9264628 4.975736-11.8121884 3.153674-3.1543558 6.65806-4.2282209 9.951814-4.2282209 6.657718 0 10.93237 5.1006954 11.002581 9.9327604 0 1.0738652-.070211 1.4766466-.35037 1.5438861-2.242643.4024535-11.142661 1.0062976-17.730511 1.2752559.069869 8.2547232 4.975736 12.0804907 9.811392 12.0804907 2.522802 0 5.045947-.6041722 7.708829-3.0874443z" fill="#29325c"/></g></svg>