<svg height="40" viewBox="0 0 35 40" width="35" xmlns="http://www.w3.org/2000/svg" xmlns:xlink="http://www.w3.org/1999/xlink"><mask id="a" fill="#fff"><path d="m0 40h34.9744382v-39.6008h-34.9744382z" fill="none"/></mask><g fill="#39aea9" fill-rule="evenodd"><path d="m19 3h2v-3h-2z"/><path d="m16.6106656 5-1.6106656-3.1072425 1.3893344-.8927575 1.6106656 3.1072425z"/><path d="m15.1075893 8-3.1075893-1.61106656.8924107-1.38893344 3.1075893 1.6106656z"/><path d="m11 11h3v-2h-3z"/><path d="m12.8928571 15-.8928571-1.3889631 3.1071429-1.6110369.8928571 1.3885623z"/><path d="m28.1075893 15-3.1075893-1.6110666.8924107-1.3889334 3.1075893 1.6106656z"/><path d="m27 10h3v-2h-3z"/><path d="m25.8927575 7-.8927575-1.38896312 3.1072425-1.61103688.8927575 1.38856227z"/><path d="m23.3897059 5-1.3897059-.89186475 1.6102941-3.10813525 1.3897059.89186475z"/><path d="m26.0925393 37.27656h-8.5883708c-1.7452809 0-3.3592134-.7616-4.4870786-2.104h-2.2164045v-1.6h2.9883708l.235955.3212c.8321349 1.1332 2.1 1.7828 3.4791573 1.7828l10.6329214-.0116c.8494382 0 1.5407865-.7032 1.5407865-1.5672 0-.8644-.6913483-1.568-1.5407865-1.568v-1.6h1.8624719c.8498315 0 1.5411798-.7036 1.5411798-1.568s-.6913483-1.568-1.5411798-1.568v-1.6h.6197753c.8498314 0 1.541573-.7032 1.541573-1.5672s-.6917416-1.5672-1.541573-1.5672v-1.6h1.2426966c.849045 0 1.5392135-.7036 1.5392135-1.568 0-.864-.6901685-1.5672-1.5392135-1.5672h-6.5182584c-.0817978 0-.1659551.008-.2560113.024l-.1356741.012h-3.649045l1.0732023-3.8548v-3.2256c0-1.1944-.9560112-2.1656-2.1310674-2.1656h-.3047753v4.0004l-1.3362921 1.9044-4.2381461 4.7104c-.5301124.5684-.8997753 1.2572-1.0787079 2.0032l-.1462921.6104h-2.3402809v-1.6h1.1392697c.2760674-.7808.7106179-1.4996 1.275337-2.1048l4.1956742-4.6628.9564045-1.3712v-5.0404l.7432584-.0424c.0735393-.0048.1187641-.0072.164382-.0072h.9701686c2.0425842 0 3.7041011 1.6888 3.7041011 3.7656v3.4476l-.5658989 2.0328h1.5046068c.1545505-.024.3071348-.036.4557865-.036h6.5182584c1.7161798 0 3.1122472 1.4208 3.1122472 3.1672 0 1.2808-.7507303 2.3868-1.8278652 2.8856.369663.5208.5875281 1.1596.5875281 1.8496 0 1.102-.5564607 2.0748-1.3984269 2.6416.4841011.5588.7782584 1.292.7782584 2.0936 0 1.472-.9914045 2.7124-2.331236 3.0664.2969101.4852.4683708 1.0572.4683708 1.6696 0 1.7464-1.3968539 3.1672-3.1138202 3.1672z"/><path d="m9.3241573 40h-9.3241573v-1.6h7.7511236v-17.0252h-7.7511236v-1.6h9.3241573z"/><path d="m4.8205618 37.3312h1.59544944v-1.6h-1.59544944z" mask="url(#a)"/></g></svg>